<svg width="174" height="32" viewBox="0 0 174 32" fill="none" xmlns="http://www.w3.org/2000/svg">
<path d="M77.4 9.86V12.58H71.6V15.68H76.08V18.28H71.6V24H68.18V9.86H77.4ZM92.9675 9.64C94.3008 9.64 95.5075 9.95333 96.5875 10.58C97.6808 11.1933 98.5408 12.0533 99.1675 13.16C99.7941 14.2533 100.107 15.4933 100.107 16.88C100.107 18.2667 99.7875 19.5133 99.1475 20.62C98.5208 21.7267 97.6608 22.5933 96.5675 23.22C95.4875 23.8333 94.2875 24.14 92.9675 24.14C91.6475 24.14 90.4408 23.8333 89.3475 23.22C88.2675 22.5933 87.4075 21.7267 86.7675 20.62C86.1408 19.5133 85.8275 18.2667 85.8275 16.88C85.8275 15.4933 86.1408 14.2533 86.7675 13.16C87.4075 12.0533 88.2675 11.1933 89.3475 10.58C90.4408 9.95333 91.6475 9.64 92.9675 9.64ZM92.9675 12.82C91.8475 12.82 90.9541 13.1867 90.2875 13.92C89.6341 14.64 89.3075 15.6267 89.3075 16.88C89.3075 18.12 89.6341 19.1067 90.2875 19.84C90.9541 20.5733 91.8475 20.94 92.9675 20.94C94.0741 20.94 94.9608 20.5733 95.6275 19.84C96.2941 19.1067 96.6275 18.12 96.6275 16.88C96.6275 15.64 96.2941 14.6533 95.6275 13.92C94.9741 13.1867 94.0875 12.82 92.9675 12.82ZM112.54 21.38H117.1V24H109.12V9.86H112.54V21.38ZM129.181 9.86V24H125.761V9.86H129.181ZM145.353 9.64C146.687 9.64 147.893 9.95333 148.973 10.58C150.067 11.1933 150.927 12.0533 151.553 13.16C152.18 14.2533 152.493 15.4933 152.493 16.88C152.493 18.2667 152.173 19.5133 151.533 20.62C150.907 21.7267 150.047 22.5933 148.953 23.22C147.873 23.8333 146.673 24.14 145.353 24.14C144.033 24.14 142.827 23.8333 141.733 23.22C140.653 22.5933 139.793 21.7267 139.153 20.62C138.527 19.5133 138.213 18.2667 138.213 16.88C138.213 15.4933 138.527 14.2533 139.153 13.16C139.793 12.0533 140.653 11.1933 141.733 10.58C142.827 9.95333 144.033 9.64 145.353 9.64ZM145.353 12.82C144.233 12.82 143.34 13.1867 142.673 13.92C142.02 14.64 141.693 15.6267 141.693 16.88C141.693 18.12 142.02 19.1067 142.673 19.84C143.34 20.5733 144.233 20.94 145.353 20.94C146.46 20.94 147.347 20.5733 148.013 19.84C148.68 19.1067 149.013 18.12 149.013 16.88C149.013 15.64 148.68 14.6533 148.013 13.92C147.36 13.1867 146.473 12.82 145.353 12.82Z" fill="#111029"/>
<path d="M164.446 20.58V24H160.906V20.58H164.446Z" fill="#FF6800"/>
<rect x="16" width="32" height="16" transform="rotate(90 16 0)" fill="#FFBDBD"/>
<circle cx="32" cy="16" r="16" fill="#4C40F7"/>
</svg>
