<svg width="174" height="32" viewBox="0 0 174 32" fill="none" xmlns="http://www.w3.org/2000/svg">
<g clip-path="url(#clip0)">
<path d="M77.38 10.96V13.7H71.66V16.66H75.94V19.32H71.66V25H68.24V10.96H77.38ZM92.9084 25.14C91.5884 25.14 90.3751 24.8333 89.2684 24.22C88.1751 23.6067 87.3017 22.7533 86.6484 21.66C86.0084 20.5533 85.6884 19.3133 85.6884 17.94C85.6884 16.5667 86.0084 15.3333 86.6484 14.24C87.3017 13.1467 88.1751 12.2933 89.2684 11.68C90.3751 11.0667 91.5884 10.76 92.9084 10.76C94.2284 10.76 95.4351 11.0667 96.5284 11.68C97.6351 12.2933 98.5017 13.1467 99.1284 14.24C99.7684 15.3333 100.088 16.5667 100.088 17.94C100.088 19.3133 99.7684 20.5533 99.1284 21.66C98.4884 22.7533 97.6217 23.6067 96.5284 24.22C95.4351 24.8333 94.2284 25.14 92.9084 25.14ZM92.9084 22.02C94.0284 22.02 94.9217 21.6467 95.5884 20.9C96.2684 20.1533 96.6084 19.1667 96.6084 17.94C96.6084 16.7 96.2684 15.7133 95.5884 14.98C94.9217 14.2333 94.0284 13.86 92.9084 13.86C91.7751 13.86 90.8684 14.2267 90.1884 14.96C89.5217 15.6933 89.1884 16.6867 89.1884 17.94C89.1884 19.18 89.5217 20.1733 90.1884 20.92C90.8684 21.6533 91.7751 22.02 92.9084 22.02ZM112.502 22.36H116.982V25H109.082V10.96H112.502V22.36ZM129.124 10.96V25H125.704V10.96H129.124ZM145.333 25.14C144.013 25.14 142.8 24.8333 141.693 24.22C140.6 23.6067 139.727 22.7533 139.073 21.66C138.433 20.5533 138.113 19.3133 138.113 17.94C138.113 16.5667 138.433 15.3333 139.073 14.24C139.727 13.1467 140.6 12.2933 141.693 11.68C142.8 11.0667 144.013 10.76 145.333 10.76C146.653 10.76 147.86 11.0667 148.953 11.68C150.06 12.2933 150.927 13.1467 151.553 14.24C152.193 15.3333 152.513 16.5667 152.513 17.94C152.513 19.3133 152.193 20.5533 151.553 21.66C150.913 22.7533 150.047 23.6067 148.953 24.22C147.86 24.8333 146.653 25.14 145.333 25.14ZM145.333 22.02C146.453 22.02 147.347 21.6467 148.013 20.9C148.693 20.1533 149.033 19.1667 149.033 17.94C149.033 16.7 148.693 15.7133 148.013 14.98C147.347 14.2333 146.453 13.86 145.333 13.86C144.2 13.86 143.293 14.2267 142.613 14.96C141.947 15.6933 141.613 16.6867 141.613 17.94C141.613 19.18 141.947 20.1733 142.613 20.92C143.293 21.6533 144.2 22.02 145.333 22.02Z" fill="white"/>
<path d="M163.107 25.16C162.507 25.16 162.014 24.9867 161.627 24.64C161.254 24.28 161.067 23.84 161.067 23.32C161.067 22.7867 161.254 22.34 161.627 21.98C162.014 21.62 162.507 21.44 163.107 21.44C163.694 21.44 164.174 21.62 164.547 21.98C164.934 22.34 165.127 22.7867 165.127 23.32C165.127 23.84 164.934 24.28 164.547 24.64C164.174 24.9867 163.694 25.16 163.107 25.16Z" fill="#FF6800"/>
<rect x="16" width="32" height="16" transform="rotate(90 16 0)" fill="#FFBDBD"/>
<circle cx="32" cy="16" r="16" fill="white"/>
</g>
<defs>
<clipPath id="clip0">
<rect width="174" height="32" fill="white"/>
</clipPath>
</defs>
</svg>
