<svg xmlns="http://www.w3.org/2000/svg" width="14" height="14" viewBox="0 0 14 14">
  <path fill="#00113B" d="M12.7277,0.16867 L12.7476392,0.168863824 C12.7716593,0.169335356 12.7956653,0.17066719 12.8196072,0.172859239 L12.7277,0.16867 C12.7769239,0.16867 12.8253171,0.172226536 12.8726366,0.179096657 C12.8937868,0.182210079 12.9151373,0.186018179 12.9363693,0.190522566 C12.9525558,0.19390993 12.9685818,0.197733627 12.9844529,0.201937788 C13.0054498,0.207525567 13.0261813,0.213733589 13.0467331,0.220627548 C13.0636907,0.226336129 13.0808304,0.232628182 13.0977429,0.239368553 C13.1156264,0.246410593 13.1332368,0.254004888 13.1506611,0.26212869 C13.1712458,0.271885044 13.1913156,0.282117831 13.2109802,0.292993764 C13.2238421,0.299889914 13.2370324,0.307563369 13.2500788,0.315563521 C13.2717105,0.329075054 13.292589,0.343008859 13.3128943,0.357686531 C13.3247866,0.366039903 13.3366717,0.37503852 13.3483963,0.384337773 C13.4098937,0.433306222 13.465581,0.489197327 13.5141517,0.550949507 L13.4362236,0.462782095 C13.4726802,0.499364554 13.5057181,0.538063005 13.535338,0.578480595 C13.5521817,0.601877085 13.568321,0.626045024 13.583406,0.65092335 C13.5896671,0.660750149 13.5956584,0.671040444 13.6014506,0.681411866 C13.6137465,0.703918342 13.6254864,0.726966209 13.6363384,0.750507701 C13.6435992,0.765800917 13.6500533,0.7808174 13.6561224,0.795952089 C13.6632412,0.814119876 13.6701611,0.832932846 13.6765223,0.852001391 C13.6831889,0.871593485 13.6890617,0.89125381 13.6943174,0.911043687 C13.6994163,0.930650716 13.7040799,0.950635781 13.7081346,0.970841005 C13.7112545,0.985812249 13.7139158,1.00083679 13.7162322,1.01590398 C13.7179219,1.02773969 13.7195566,1.03986086 13.7209723,1.05204887 L13.7245127,1.08616872 C13.7258875,1.10287787 13.7268438,1.11961484 13.7273816,1.13636261 L13.7277,1.16867 L13.7277,6.24235 C13.7277,6.79463475 13.2799847,7.24235 12.7277,7.24235 C12.2148642,7.24235 11.7921928,6.85630981 11.7344277,6.35897113 L11.7277,6.24235 L11.7267,3.57767 L2.0425879,13.2290236 C1.6513916,13.6188747 1.01822756,13.6177842 0.62837644,13.2265879 C0.268513863,12.8654836 0.241761293,12.2982057 0.547461362,11.9064404 L0.630812095,11.8123764 L10.3077,2.16767 L7.63654,2.16867 C7.12370416,2.16867 6.70103284,1.78262981 6.64326773,1.28529113 L6.63654,1.16867 C6.63654,0.655834161 7.02258019,0.233162839 7.51991887,0.175397731 L7.63654,0.16867 L12.7277,0.16867 Z"/>
</svg>
