<?xml version="1.0" standalone="no"?>
<!DOCTYPE svg PUBLIC "-//W3C//DTD SVG 20010904//EN"
 "http://www.w3.org/TR/2001/REC-SVG-20010904/DTD/svg10.dtd">
<svg version="1.0" xmlns="http://www.w3.org/2000/svg"
 width="944.000000pt" height="944.000000pt" viewBox="0 0 944.000000 944.000000"
 preserveAspectRatio="xMidYMid meet">
<metadata>
Created by potrace 1.11, written by Peter Selinger 2001-2013
</metadata>
<g transform="translate(0.000000,944.000000) scale(0.100000,-0.100000)"
fill="#000000" stroke="none">
<path d="M7408 8795 c-2 -2 -30 -6 -63 -10 -166 -18 -382 -84 -557 -169 -117
-57 -269 -152 -325 -205 -18 -16 -33 -28 -33 -25 0 3 -11 -5 -24 -18 -133
-128 -174 -169 -194 -193 -43 -50 -143 -188 -169 -234 -15 -25 -30 -48 -33
-51 -3 -3 -18 -31 -35 -62 l-29 -57 -56 31 c-30 17 -84 46 -120 66 -36 19 -85
46 -110 60 -47 26 -128 70 -195 105 -22 12 -48 28 -57 36 -10 8 -18 11 -18 8
0 -4 -25 9 -55 28 -30 19 -56 35 -59 35 -3 0 -48 23 -98 51 -102 56 -187 103
-233 128 -16 9 -38 23 -49 31 -10 8 -21 14 -25 13 -3 0 -32 14 -64 33 -32 19
-60 34 -63 34 -3 0 -39 20 -82 44 -231 130 -326 171 -482 209 -148 37 -169 39
-317 42 -138 2 -264 -13 -383 -45 -25 -7 -47 -12 -50 -12 -3 0 -27 -9 -55 -20
-27 -11 -55 -21 -61 -22 -7 -1 -19 -8 -28 -15 -9 -7 -16 -11 -16 -7 0 8 -74
-31 -405 -214 -190 -105 -237 -130 -305 -166 -30 -16 -57 -31 -60 -34 -3 -3
-34 -20 -70 -39 -61 -32 -131 -70 -208 -113 -19 -10 -73 -39 -120 -65 -48 -25
-91 -49 -97 -53 -9 -7 -52 -30 -200 -110 -33 -18 -85 -46 -115 -63 -30 -16
-75 -41 -100 -54 -25 -13 -58 -32 -75 -42 -16 -9 -64 -35 -105 -57 -41 -21
-77 -41 -80 -44 -3 -3 -43 -25 -90 -49 -47 -25 -87 -47 -90 -50 -3 -3 -27 -17
-55 -31 -27 -13 -53 -29 -57 -35 -4 -5 -8 -7 -8 -3 0 4 -21 -5 -48 -20 -26
-16 -83 -48 -127 -72 -216 -116 -334 -200 -456 -323 -36 -37 -64 -67 -62 -67
2 0 -6 -10 -17 -22 -39 -41 -138 -196 -170 -265 -17 -37 -38 -80 -45 -94 -8
-14 -12 -29 -8 -33 3 -3 0 -6 -7 -6 -7 0 -11 -3 -7 -6 3 -4 0 -23 -8 -43 -18
-47 -51 -181 -62 -251 -10 -66 -11 -2846 -1 -2910 16 -102 17 -108 62 -265 22
-75 129 -296 148 -303 4 -2 8 -8 8 -13 0 -32 183 -241 279 -319 24 -19 48 -40
55 -45 18 -17 155 -105 174 -112 9 -4 37 -19 62 -33 25 -15 81 -46 125 -70 44
-24 103 -56 130 -72 28 -15 70 -38 95 -50 25 -13 47 -25 50 -28 3 -3 32 -18
65 -35 33 -16 62 -33 65 -36 3 -3 19 -12 35 -21 43 -21 157 -83 247 -134 43
-24 80 -44 82 -44 3 0 28 -14 57 -30 28 -17 84 -48 123 -69 86 -45 119 -64
126 -71 3 -3 30 -17 60 -32 30 -15 82 -43 115 -61 139 -77 251 -138 343 -188
28 -16 76 -42 105 -58 51 -28 101 -55 202 -111 28 -15 75 -41 105 -58 30 -16
93 -50 139 -76 46 -25 86 -46 88 -46 3 0 17 -9 31 -19 15 -10 30 -19 35 -20 4
0 21 -8 37 -16 17 -9 30 -13 30 -10 0 3 10 -1 23 -9 12 -7 47 -21 77 -31 30
-9 62 -19 70 -22 8 -3 22 -7 30 -9 8 -2 31 -6 50 -10 19 -4 42 -9 50 -10 8 -1
29 -5 45 -9 56 -13 328 -14 402 -1 40 7 75 11 78 8 3 -3 5 -1 5 4 0 5 8 10 18
10 29 2 86 14 107 23 11 5 43 17 70 26 80 28 133 52 235 109 82 45 149 81 210
113 30 15 57 30 60 33 5 5 70 40 145 79 17 9 32 19 33 24 2 4 12 7 23 7 11 0
22 7 25 15 4 8 11 15 18 15 12 0 7 -3 211 110 83 46 184 101 225 123 41 22 81
44 88 50 6 5 12 6 12 1 0 -5 4 -4 8 2 4 6 36 27 72 47 36 19 133 72 215 116
83 45 157 86 165 91 8 5 44 24 80 43 122 65 135 72 140 78 3 3 20 12 38 20 17
8 32 17 32 21 0 5 5 8 10 8 6 0 77 36 157 80 80 44 149 80 154 80 4 0 9 3 11
8 2 4 21 16 43 27 22 10 52 28 68 38 15 10 27 15 27 10 0 -4 4 -3 8 2 7 10 18
16 112 67 81 44 110 63 110 71 0 4 5 7 11 7 10 0 55 33 118 85 48 41 137 132
176 180 22 28 48 59 57 69 10 11 18 25 18 32 0 7 3 14 8 16 24 11 156 271 168
331 2 11 10 41 18 66 14 46 29 112 41 186 8 47 17 223 15 280 -1 22 -2 46 -1
53 2 22 2 41 1 107 -1 36 1 69 5 74 3 5 2 12 -3 15 -4 3 -5 30 -2 60 3 31 4
56 1 56 -7 0 -3 169 3 187 3 7 2 14 -3 17 -4 3 -4 30 -1 60 3 31 4 56 1 56 -4
0 -4 38 -1 84 3 46 3 96 0 112 -3 16 -3 46 1 66 3 20 3 42 -1 48 -4 6 -4 31 0
55 4 25 4 45 1 45 -3 0 -5 26 -3 57 1 32 3 63 3 68 0 6 0 28 0 50 -1 22 -1 47
0 55 0 19 0 128 -1 155 -1 36 1 89 3 91 1 1 29 5 62 8 105 12 230 31 230 36 0
2 20 7 59 15 16 3 36 10 45 14 9 5 18 9 21 9 32 -4 180 61 391 169 15 7 32 20
39 28 7 8 17 15 22 15 5 0 14 5 21 10 7 6 44 34 82 62 75 56 97 74 178 154 63
62 119 125 155 173 15 20 29 38 32 41 3 3 23 32 45 65 21 33 42 62 45 65 4 3
20 31 36 63 16 32 38 75 48 95 24 46 96 220 100 241 1 9 10 41 20 72 18 60 21
75 36 154 5 28 12 64 15 80 23 122 23 492 -1 567 -7 23 -13 57 -19 99 -4 29
-28 115 -69 244 -11 35 -39 101 -75 175 -14 30 -26 57 -27 60 -1 9 -37 69 -81
136 -24 36 -43 67 -43 70 0 3 -6 11 -12 18 -7 7 -22 25 -33 41 -71 98 -242
269 -350 350 -22 16 -44 33 -50 37 -22 18 -115 78 -119 78 -3 0 -28 13 -55 29
-27 16 -83 44 -123 61 -40 17 -82 35 -93 41 -39 18 -220 72 -285 84 -42 8
-109 18 -140 22 -41 5 -377 12 -382 8z"/>
</g>
</svg>
