<svg width="22" height="22" viewBox="0 0 22 22" fill="none" xmlns="http://www.w3.org/2000/svg">
<path fill-rule="evenodd" clip-rule="evenodd" d="M11 13C11.5523 13 12 13.4477 12 14V21C12 21.5523 11.5523 22 11 22C10.4477 22 10 21.5523 10 21V14C10 13.4477 10.4477 13 11 13Z" fill="#00113B"/>
<path fill-rule="evenodd" clip-rule="evenodd" d="M11 0C11.5523 0 12 0.447715 12 1V8C12 8.55228 11.5523 9 11 9C10.4477 9 10 8.55228 10 8V1C10 0.447715 10.4477 0 11 0Z" fill="#00113B"/>
<path fill-rule="evenodd" clip-rule="evenodd" d="M6.29289 16.2929C6.68342 15.9024 7.31658 15.9024 7.70711 16.2929L11 19.5858L14.2929 16.2929C14.6834 15.9024 15.3166 15.9024 15.7071 16.2929C16.0976 16.6834 16.0976 17.3166 15.7071 17.7071L11.7071 21.7071C11.3166 22.0976 10.6834 22.0976 10.2929 21.7071L6.29289 17.7071C5.90237 17.3166 5.90237 16.6834 6.29289 16.2929Z" fill="#00113B"/>
<path fill-rule="evenodd" clip-rule="evenodd" d="M10.2929 0.292893C10.6834 -0.0976311 11.3166 -0.0976311 11.7071 0.292893L15.7071 4.29289C16.0976 4.68342 16.0976 5.31658 15.7071 5.70711C15.3166 6.09763 14.6834 6.09763 14.2929 5.70711L11 2.41421L7.70711 5.70711C7.31658 6.09763 6.68342 6.09763 6.29289 5.70711C5.90237 5.31658 5.90237 4.68342 6.29289 4.29289L10.2929 0.292893Z" fill="#00113B"/>
<path fill-rule="evenodd" clip-rule="evenodd" d="M0 11C0 10.4477 0.447715 10 1 10H21C21.5523 10 22 10.4477 22 11C22 11.5523 21.5523 12 21 12H1C0.447715 12 0 11.5523 0 11Z" fill="#00113B"/>
</svg>
