<svg xmlns="http://www.w3.org/2000/svg" width="22" height="16" viewBox="0 0 22 16">
  <path fill="#FFF" fill-rule="evenodd" d="M14.7071,0.292893 C14.3166,-0.0976311 13.6834,-0.0976311 13.2929,0.292893 C12.9024,0.683418 12.9024,1.31658 13.2929,1.70711 L18.5858,6.99999993 L1,6.99999993 C0.447715,6.99999993 0,7.44772 0,7.99999993 C0,8.55228 0.447715,8.99999992 1,8.99999992 L18.5858,8.99999992 L13.2929,14.2929 C12.9024,14.6834 12.9024,15.3166 13.2929,15.7071 C13.6834,16.0976 14.3166,16.0976 14.7071,15.7071 L21.7071,8.70711 C21.8902,8.52405 21.9874,8.28768 21.9989,8.04797 C21.9996,8.03199 22,8.016 22,7.99999993 M21.9241,7.61722 C21.8753,7.49927 21.803,7.38877 21.7071,7.292893 L14.7071,0.292893 M21.9241,7.61722 C21.9719,7.73244 21.9988,7.85854 22,7.99077 L21.9241,7.61722 Z" transform="rotate(180 11 8)"/>
</svg>
