<svg width="16" height="16" viewBox="0 0 16 16" fill="none" xmlns="http://www.w3.org/2000/svg">
<path fill-rule="evenodd" clip-rule="evenodd" d="M8 0C3.6 0 0 3.6 0 8C0 12.4 3.6 16 8 16C12.4 16 16 12.4 16 8C16 3.6 12.4 0 8 0ZM10.2 7.4C10.2 7.4 10 6.8 9.9 6.6C11.6 5.8 12.7 4.9 13.1 4.4C13.8 5.3 14.2 6.4 14.3 7.6C13.5 7.4 11.7 7.1 10.2 7.4ZM9.1 5.1C8.3 3.7 7.4 2.5 7 1.8C8.9 1.3 10.6 1.9 11.9 3.1C11.5 3.6 10.7 4.4 9.1 5.1ZM5.1 2.5C5.5 3 6.3 4.2 7.1 5.7C4.9 6.2 2.9 6.3 2 6.3C2.4 4.7 3.6 3.3 5.1 2.5ZM8 7.3C8.1 7.5 8.2 7.7 8.3 7.8C5.5 8.7 3.7 11 3.1 11.9C2.3 10.8 1.8 9.5 1.8 8.2C2.7 8.1 5.3 8 8 7.3ZM9 9.5C9.7 11.5 10.1 13.1 10.2 13.9C8.1 14.6 5.7 14.2 4.4 13.1C4.8 12.4 6.1 10.6 9 9.5ZM11.9 12.9C11.7 12.1 11.4 10.7 10.8 9C11.9 8.8 13.5 9 14.1 9.2C13.8 10.7 13 12 11.9 12.9Z" fill="#111029"/>
</svg>
