<svg width="18" height="15" viewBox="0 0 18 15" fill="none" xmlns="http://www.w3.org/2000/svg">
<path fill-rule="evenodd" clip-rule="evenodd" d="M2.4224 0.266724C1.24419 0.266724 0.289062 1.22185 0.289062 2.40006V12.3556C0.289062 13.5338 1.24419 14.4889 2.4224 14.4889H15.2224C16.4006 14.4889 17.3557 13.5338 17.3557 12.3556V2.40006C17.3557 1.22185 16.4006 0.266724 15.2224 0.266724H2.4224ZM1.71128 2.40006C1.71128 2.00732 2.02966 1.68895 2.4224 1.68895H15.2224C15.6151 1.68895 15.9335 2.00732 15.9335 2.40006V12.3556C15.9335 12.7483 15.6151 13.0667 15.2224 13.0667H2.4224C2.02966 13.0667 1.71128 12.7483 1.71128 12.3556V2.40006ZM4.34724 3.31949C4.06954 3.04178 3.61929 3.04178 3.34158 3.31949C3.06387 3.59719 3.06387 4.04744 3.34158 4.32515L8.31936 9.30293C8.59706 9.58063 9.04732 9.58063 9.32502 9.30293L14.3028 4.32515C14.5805 4.04744 14.5805 3.59719 14.3028 3.31949C14.0251 3.04178 13.5748 3.04178 13.2971 3.31949L8.82219 7.79443L4.34724 3.31949ZM5.76947 9.00833C6.04717 9.28603 6.04717 9.73629 5.76947 10.014L4.34724 11.4362C4.06954 11.7139 3.61929 11.7139 3.34158 11.4362C3.06387 11.1585 3.06387 10.7083 3.34158 10.4306L4.7638 9.00833C5.04151 8.73062 5.49176 8.73062 5.76947 9.00833ZM12.8809 9.00833C12.6032 8.73062 12.153 8.73062 11.8753 9.00833C11.5976 9.28603 11.5976 9.73629 11.8753 10.014L13.2975 11.4362C13.5752 11.7139 14.0255 11.7139 14.3032 11.4362C14.5809 11.1585 14.5809 10.7083 14.3032 10.4306L12.8809 9.00833Z" fill="#4C40F7"/>
</svg>
