<svg width="17" height="18" viewBox="0 0 17 18" fill="none" xmlns="http://www.w3.org/2000/svg">
<path fill-rule="evenodd" clip-rule="evenodd" d="M6.68882 2.97782C6.68882 2.58508 7.0072 2.2667 7.39993 2.2667H14.511C14.9038 2.2667 15.2222 2.58508 15.2222 2.97782V7.24448C15.2222 7.63722 14.9038 7.95559 14.511 7.95559H8.82216C8.71176 7.95559 8.60288 7.9813 8.50414 8.03067L6.68882 8.93833V2.97782ZM7.39993 0.844482C6.22173 0.844482 5.2666 1.79961 5.2666 2.97782V10.0889C5.2666 10.3354 5.39421 10.5643 5.60386 10.6938C5.81351 10.8234 6.07529 10.8352 6.29573 10.725L8.99003 9.37782H14.511C15.6893 9.37782 16.6444 8.42269 16.6444 7.24448V2.97782C16.6444 1.79961 15.6893 0.844482 14.511 0.844482H7.39993ZM2.4224 2.2666C1.24419 2.2666 0.289062 3.22173 0.289062 4.39994V15.7777C0.289062 16.9559 1.24419 17.911 2.4224 17.911H10.2446C11.4228 17.911 12.378 16.9559 12.378 15.7777V10.7999C12.378 10.4072 12.0596 10.0888 11.6668 10.0888C11.2741 10.0888 10.9557 10.4072 10.9557 10.7999V15.7777C10.9557 16.1704 10.6374 16.4888 10.2446 16.4888H2.4224C2.02966 16.4888 1.71128 16.1704 1.71128 15.7777V4.39994C1.71128 4.0072 2.02966 3.68882 2.4224 3.68882H3.84462C4.23735 3.68882 4.55573 3.37045 4.55573 2.97771C4.55573 2.58498 4.23735 2.2666 3.84462 2.2666H2.4224Z" fill="#4C40F7"/>
</svg>
