<svg width="17" height="18" viewBox="0 0 17 18" fill="none" xmlns="http://www.w3.org/2000/svg">
<path fill-rule="evenodd" clip-rule="evenodd" d="M8.5 0.875C6.01472 0.875 4 2.88972 4 5.375V7.375C4 9.86028 6.01472 11.875 8.5 11.875C10.9853 11.875 13 9.86028 13 7.375V5.375C13 2.88972 10.9853 0.875 8.5 0.875ZM6 5.375C6 3.99429 7.11929 2.875 8.5 2.875C9.88071 2.875 11 3.99429 11 5.375V7.375C11 8.75571 9.88071 9.875 8.5 9.875C7.11929 9.875 6 8.75571 6 7.375V5.375ZM3.5465 12.25C4.02963 11.9824 4.20437 11.3738 3.93679 10.8907C3.66921 10.4075 3.06063 10.2328 2.5775 10.5004C0.98671 11.3814 -0.000303903 13.0569 7.01913e-08 14.8754V16.8752C7.01913e-08 17.4275 0.447715 17.8752 1 17.8752H16C16.5523 17.8752 17 17.4275 17 16.8752V14.8752C17.0003 13.0567 16.0133 11.3814 14.4225 10.5004C13.9394 10.2328 13.3308 10.4075 13.0632 10.8907C12.7956 11.3738 12.9704 11.9824 13.4535 12.25C14.408 12.7786 15.0002 13.7841 15 14.8752V15.8752H2V14.875C1.99977 13.7838 2.59199 12.7786 3.5465 12.25Z" fill="#111029"/>
</svg>
